<svg xmlns="http://www.w3.org/2000/svg" xmlns:xlink="http://www.w3.org/1999/xlink" width="160px" height="160px" viewBox="0 0 160 160" version="1.1">
  <!-- Generator: Sketch 54.1 (76490) - https://sketchapp.com -->
  <title>Group 2</title>
  <desc>Created with Sketch.</desc>
  <defs>
    <rect id="path-1" x="0" y="0" width="100" height="16.6666667" rx="4"/>
    <linearGradient x1="50%" y1="41.8401246%" x2="50%" y2="100%" id="linearGradient-3">
      <stop stop-color="#E8EAED" offset="0%"/>
      <stop stop-color="#E8EAED" stop-opacity="0" offset="100%"/>
    </linearGradient>
    <linearGradient x1="50%" y1="41.8401246%" x2="50%" y2="100%" id="linearGradient-4">
      <stop stop-color="#E8EAED" offset="0%"/>
      <stop stop-color="#E8EAED" stop-opacity="0" offset="100%"/>
    </linearGradient>
  </defs>
  <g id="Symbols" stroke="none" stroke-width="1" fill="none" fill-rule="evenodd">
    <g id="Table/empty-Status/Search" transform="translate(-448.000000, -106.000000)">
      <g id="Group-2" transform="translate(448.000000, 106.000000)">
        <circle id="Oval" fill="#F8F9FA" cx="80" cy="80" r="80"/>
        <g id="Group-3" transform="translate(30.000000, 42.000000)">
          <mask id="mask-2" fill="white">
            <use xlink:href="#path-1"/>
          </mask>
          <use id="Rectangle-Copy-4" fill="#E8EAED" fill-rule="nonzero" xlink:href="#path-1"/>
          <rect id="Rectangle-Copy-5" fill="url(#linearGradient-3)" fill-rule="nonzero" x="0" y="25.8333502" width="27.5" height="50" rx="4"/>
          <path d="M39,25.8333502 L96,25.8333502 C98.209139,25.8333502 100,27.6242112 100,29.8333502 L100,71.8333502 C100,74.0424892 98.209139,75.8333502 96,75.8333502 L39,75.8333502 C36.790861,75.8333502 35,74.0424892 35,71.8333502 L35,29.8333502 C35,27.6242112 36.790861,25.8333502 39,25.8333502 Z" id="Rectangle-Copy-7" fill="url(#linearGradient-4)" fill-rule="nonzero"/>
        </g>
      </g>
    </g>
  </g>
</svg>